<?xml version="1.0" encoding="UTF-8" standalone="no"?>
<svg
   version="1.0"
   width="594"
   height="420"
   viewBox="0 0 594 420"
   preserveAspectRatio="xMidYMid"
   id="svg8"
   sodipodi:docname="a26bda42-f63b-4d78-bfc6-53bc5ae314d7.svg"
   inkscape:version="1.4.2 (f4327f4, 2025-05-13)"
   inkscape:export-filename="..\Google Drive\Desktop\yabanect logo.svg"
   inkscape:export-xdpi="114.28571"
   inkscape:export-ydpi="114.28571"
   xmlns:inkscape="http://www.inkscape.org/namespaces/inkscape"
   xmlns:sodipodi="http://sodipodi.sourceforge.net/DTD/sodipodi-0.dtd"
   xmlns="http://www.w3.org/2000/svg"
   xmlns:svg="http://www.w3.org/2000/svg">
  <defs
     id="defs8">
    <rect
       x="290.64328"
       y="288.5965"
       width="464.17825"
       height="160.56406"
       id="rect9-5" />
  </defs>
  <sodipodi:namedview
     id="namedview8"
     pagecolor="#505050"
     bordercolor="#eeeeee"
     borderopacity="1"
     inkscape:showpageshadow="0"
     inkscape:pageopacity="0"
     inkscape:pagecheckerboard="0"
     inkscape:deskcolor="#505050"
     showguides="false"
     inkscape:zoom="1.2214286"
     inkscape:cx="317.66082"
     inkscape:cy="259.12281"
     inkscape:window-width="1366"
     inkscape:window-height="715"
     inkscape:window-x="-8"
     inkscape:window-y="-8"
     inkscape:window-maximized="1"
     inkscape:current-layer="g8"
     inkscape:export-bgcolor="#f6f6f609">
    <inkscape:page
       x="0"
       y="0"
       width="594"
       height="420"
       id="page2"
       margin="0"
       bleed="0" />
  </sodipodi:namedview>
  <g
     transform="matrix(0.1,0,0,-0.1,0,420)"
     fill="#000000"
     stroke="none"
     id="g8">
    <path
       d="m 109.30176,3441.7384 c 9.06086,-18.1218 53.23253,-95.1391 98.53681,-172.1563 44.17167,-75.8846 89.47595,-154.0345 99.66941,-173.2889 11.32608,-18.1217 97.4042,-168.7584 192.54318,-334.119 95.13899,-165.3607 211.7975,-366.9646 259.36699,-449.6449 47.56949,-81.5477 88.34334,-146.1063 90.60856,-143.8412 3.39782,3.3979 31.71299,67.9565 64.5586,143.8412 l 60.02816,138.178 -26.04996,45.3043 c -61.16078,107.5976 -289.94738,501.7448 -387.35157,669.3706 -58.89557,99.6695 -106.46506,191.4106 -106.46506,202.7367 0,33.9782 33.97821,61.1607 98.53681,80.4151 32.84559,9.0609 60.02817,19.2543 60.02817,22.6521 0,2.2653 -117.79112,4.5305 -260.4996,4.5305 H 91.180051 Z"
       id="path1"
       style="fill:#ff0000;stroke-width:1.1326" />
    <path
       d="M 1379.5489,3357.1121 C 1338.1365,3243.2282 1188.592,2842.909 868.7968,1983.6031 785.97213,1761.587 718.10192,1576.3818 718.10192,1572.9308 c 0,-4.6014 66.71987,-8.0524 148.39419,-8.0524 h 148.39419 l 17.2551,44.8633 c 10.3531,24.1572 49.4647,128.8384 88.5764,232.3692 39.1116,103.5309 103.5308,277.2326 143.7928,384.2145 40.262,108.1322 124.237,331.2986 185.2052,498.0983 62.1185,165.6493 116.1846,297.9387 120.7859,293.3374 4.6014,-5.7518 24.1572,-50.6151 42.5627,-101.2302 86.2757,-228.9182 185.2052,-496.948 192.1072,-519.9548 6.9021,-26.4579 5.7517,-26.4579 -88.5764,-26.4579 h -96.6287 l -20.7062,-65.5695 c -11.5034,-36.811 -23.0068,-75.9227 -25.3075,-86.2757 -5.7517,-18.4055 9.2027,-20.7062 151.8452,-23.0069 l 156.4466,-3.451 43.713,-115.0343 c 24.1572,-63.2688 65.5695,-172.5514 92.0274,-243.8726 26.4579,-71.3212 46.0137,-136.8908 42.5627,-146.0935 -10.3531,-26.4579 -52.9158,-49.4647 -158.7473,-86.2757 l -96.6288,-34.5103 308.2918,-1.1503 c 169.1004,0 307.1415,2.3007 307.1415,4.6013 0,3.4511 -27.6082,79.3737 -62.1185,170.2507 -34.5103,90.8771 -97.7791,257.6768 -139.1914,371.5607 -140.3418,377.3124 -294.4877,791.4357 -343.9525,926.0258 -27.6082,72.4716 -74.7722,201.3099 -105.8315,284.1346 l -56.3668,152.9956 h -144.9431 -144.9432 z"
       id="path2"
       style="fill:#ff0000;stroke-width:1.15034" />
    <path
       d="m 4842.0801,3460.643 c -2.3007,-8.0524 -54.0661,-149.5446 -115.0343,-314.0436 -106.9819,-288.736 -166.7997,-450.9343 -345.1028,-926.0258 -47.164,-123.0866 -119.6356,-317.4945 -161.0479,-431.3784 -42.5627,-113.8839 -83.5358,-220.398 -83.6571,-220.3169 -2.3007,-5.7517 -0.2512,-3.9999 150.3769,-3.9999 h 155.2963 l 11.5034,32.2096 c 6.9021,17.2551 85.1254,227.7678 174.8521,468.1894 303.6904,814.4425 347.4034,931.7775 356.6062,949.0326 8.0524,13.8041 12.6538,9.2028 23.0068,-17.2551 14.9545,-41.4123 64.4192,-174.8521 159.8977,-429.0778 39.1116,-102.3805 70.1709,-188.6562 70.1709,-192.1072 0,-3.451 -43.7131,-5.7517 -96.6288,-5.7517 h -96.6288 l -24.1572,-79.3737 c -13.8041,-43.713 -24.1572,-82.8246 -24.1572,-86.2757 0,-3.451 69.0206,-6.902 154.1459,-6.902 135.7404,0 155.2963,-2.3007 162.1983,-19.5558 13.8041,-35.6607 105.8315,-281.834 144.9432,-386.5151 l 36.811,-101.2302 -23.0069,-24.1572 c -13.8041,-12.6538 -72.4716,-40.262 -132.2894,-62.1185 l -106.9819,-37.9613 h 307.1415 l 307.1415,-1.1503 -34.5103,95.4784 c -19.5558,51.7654 -57.5171,154.1459 -85.1253,226.6175 -62.1185,167.95 -317.4946,852.4039 -470.4902,1265.3768 l -118.4852,316.3443 -146.0936,3.451 c -110.4328,2.3007 -146.0935,-1.1504 -150.6948,-11.5034 z"
       id="path3"
       sodipodi:nodetypes="cccccsccccccssccsscccccccccccccc"
       style="fill:#ff0000;stroke-width:1.15034" />
    <path
       d="m 2879.4711,3461.9904 c -10.3531,-8.0524 -24.1572,-28.7586 -29.909,-46.0137 -9.2027,-23.0069 -19.5558,-32.2096 -40.2619,-32.2096 -35.6607,0 -64.4192,-39.1117 -64.4192,-89.7267 0,-31.0593 -3.4511,-36.811 -19.5559,-32.2096 -60.9681,18.4054 -135.7404,29.9089 -154.1459,24.1572 -29.9089,-10.3531 -27.6082,-55.2165 6.9021,-131.1391 33.3599,-70.1709 37.9613,-55.2164 -57.5171,-177.1528 -70.1709,-92.0274 -66.7199,-125.3873 14.9544,-141.4921 l 35.6606,-6.902 -80.5239,-119.6357 c -43.7131,-65.5695 -79.3737,-124.237 -79.3737,-129.9887 0,-14.9544 74.7723,-35.6606 127.688,-35.6606 h 41.4124 l -21.8565,-105.8315 c -11.5035,-57.5172 -20.7062,-124.237 -18.4055,-146.0935 3.451,-36.811 6.902,-41.4124 31.0592,-37.9613 57.5172,5.7517 62.1185,-48.3144 10.3531,-119.6357 -43.713,-60.9681 -36.8109,-85.1253 29.9089,-100.0798 l 41.4124,-10.3531 -46.0137,-44.8633 c -80.524,-78.2233 -71.3213,-144.9432 25.3075,-167.95 l 49.4647,-11.5035 -60.9681,-27.6082 c -33.36,-14.9544 -58.6675,-32.2096 -56.3668,-39.1116 2.3007,-5.7517 31.0592,-21.8565 64.4192,-33.36 l 59.8178,-21.8565 -36.811,-31.0592 -36.8109,-31.0593 13.8041,-349.7041 c 18.4055,-472.79092 48.3144,-775.33102 82.8246,-840.90054 18.4055,-33.35994 66.7199,-25.30754 106.9819,18.40548 66.7199,73.62192 177.1528,328.99798 141.4921,328.99798 -27.6082,0 -95.4784,-55.21645 -117.3349,-96.62878 -20.7062,-37.9613 -39.1117,-52.91576 -41.4123,-32.20959 0,4.60137 -3.4511,18.40548 -5.7518,31.05925 -27.6082,111.58323 -41.4123,282.98432 -47.164,577.4721 l -6.9021,337.0503 33.36,11.5035 c 58.6675,19.5558 90.877,40.262 94.3281,60.9681 5.7517,28.7586 -34.5103,75.9226 -64.4192,77.073 -21.8565,0 -24.1572,3.451 -13.8041,21.8565 18.4055,35.6606 13.8041,79.3736 -10.3531,93.1777 -12.6538,5.7517 -46.0137,11.5035 -74.7723,11.5035 -28.7585,0 -52.9157,4.6013 -52.9157,10.353 0,6.9021 26.4578,41.4124 57.5171,77.073 33.3599,37.9613 57.5171,77.073 57.5171,92.0274 0,27.6082 -28.7585,50.6151 -65.5695,50.6151 -48.3144,1.1503 -49.4647,14.9544 -12.6538,111.5832 34.5103,89.7267 34.5103,95.4784 16.1048,123.0867 -12.6537,19.5558 -29.9089,29.9089 -48.3144,29.9089 -24.1572,0 -28.7585,4.6013 -21.8565,20.7061 75.9226,186.3555 67.8702,255.3761 -29.9089,255.3761 -24.1572,0 -44.8633,3.451 -44.8633,6.9021 0,3.451 16.1048,28.7585 34.5102,56.3667 44.8634,65.5696 80.524,148.3942 80.524,189.8066 0,32.2096 -17.2551,46.0137 -58.6675,46.0137 -29.9089,0 -28.7585,5.7517 27.6083,71.3212 42.5626,50.6151 48.3144,64.4192 48.3144,113.8839 0,43.713 3.451,55.2165 17.2551,51.7654 9.2027,-3.451 28.7586,-8.0524 42.5627,-12.6537 34.5102,-9.2028 66.7198,39.1116 57.5171,86.2757 l -6.9021,33.3599 47.1641,-17.2551 c 93.1777,-32.2096 135.7404,-14.9545 135.7404,57.5171 v 28.7586 l 49.4647,-27.6083 c 34.5103,-20.7061 65.5696,-28.7585 111.5833,-28.7585 57.5171,0 66.7199,-3.4511 95.4784,-35.6606 28.7586,-33.36 35.6606,-35.6607 82.8247,-29.909 28.7585,4.6014 51.7654,3.4511 51.7654,-1.1503 0,-18.4055 106.9819,-148.3942 146.0935,-178.3031 24.1572,-17.2551 65.5695,-37.9613 92.0274,-43.713 54.0661,-13.8041 106.9819,-60.9682 88.5764,-79.3737 -6.9021,-6.902 -34.5103,-23.0068 -63.2688,-37.9613 -94.3281,-47.164 -60.9682,-82.8246 57.5171,-63.2688 47.164,9.2027 52.9157,6.9021 98.9294,-35.6606 59.8179,-55.2165 117.335,-75.9226 171.4011,-60.9682 55.2164,16.1048 126.5377,75.9226 157.5969,133.4398 51.7654,97.7791 -3.451,180.6037 -149.5445,225.4671 -108.1322,34.5103 -120.786,27.6082 -29.9089,-16.1048 95.4784,-44.8634 120.786,-70.1709 132.2894,-132.2894 14.9544,-83.975 -49.4648,-162.1983 -135.7404,-162.1983 -50.6151,0 -77.073,14.9545 -110.4329,64.4192 -24.1572,35.6606 -26.4579,46.0137 -14.9545,71.3212 11.5034,24.1572 10.3531,31.0593 -8.0524,41.4124 -23.0068,12.6537 -87.426,69.0205 -238.1209,203.6106 -47.1641,41.4123 -108.1322,110.4329 -136.8908,151.8452 -56.3668,83.975 -80.524,98.9295 -117.3349,74.7723 -21.8565,-14.9545 -28.7586,-11.5034 -80.524,39.1116 -72.4716,71.3213 -115.0343,75.9227 -136.8908,14.9545 -8.0524,-21.8565 -19.5558,-40.262 -25.3075,-40.262 -5.7517,0 -42.5627,18.4055 -81.6743,40.262 -80.524,44.8634 -86.2757,46.0137 -113.8839,26.4579 z"
       id="path4"
       style="fill:#ff0000;stroke-width:1.15034" />
    <path
       d="m 2919.733,3009.9057 c -37.9613,-32.2096 -71.3212,-113.8839 -71.3212,-174.852 v -37.9613 h 64.4192 c 55.2164,0 63.2688,2.3006 57.5171,20.7061 -8.0524,26.4579 11.5034,106.9819 27.6082,117.335 23.0069,13.8041 58.6675,-1.1504 71.3213,-29.9089 20.7062,-44.8634 35.6606,-32.2096 27.6082,20.7061 -16.1048,102.3805 -105.8315,143.7929 -177.1528,83.975 z"
       id="path5"
       style="fill:#ff0000;stroke-width:1.15034" />
    <path
       d="m 3374.1184,3019.1085 c -12.6538,-12.6538 -9.2028,-55.2165 5.7517,-70.1709 34.5103,-34.5103 86.2757,0 73.6219,49.4647 -5.7517,21.8565 -14.9544,28.7586 -40.262,28.7586 -17.2551,0 -35.6606,-3.4511 -39.1116,-8.0524 z"
       id="path6"
       style="fill:#ff0000;stroke-width:1.15034" />
    <path
       d="m 3292.444,2774.0855 c -49.4647,-32.2096 -90.877,-57.5171 -92.0274,-55.2164 -32.2096,75.9226 -49.4647,95.4784 -81.6743,95.4784 -29.9089,0 -42.5627,-11.5034 -100.0798,-97.7791 -72.4716,-106.9819 -79.3736,-126.5377 -43.713,-126.5377 36.811,0 86.2757,29.9089 118.4853,70.1709 l 27.6082,35.6606 8.0524,-32.2096 c 23.0069,-90.877 77.073,-95.4784 149.5445,-14.9544 29.9089,33.3599 52.9158,50.615 52.9158,41.4123 0,-33.3599 34.5103,-54.0661 90.8771,-54.0661 50.615,0 54.0661,-1.1503 52.9157,-31.0593 0,-27.6082 6.9021,-32.2095 74.7723,-52.9157 111.5832,-33.3599 112.7336,-34.5103 69.0205,-41.4123 -60.9681,-10.3531 -56.3667,-36.811 17.2552,-92.0275 79.3736,-59.8178 105.8315,-97.7791 86.2757,-121.9363 -8.0524,-9.2027 -27.6082,-17.2551 -44.8634,-17.2551 -49.4647,0 -63.2688,-16.1048 -55.2164,-63.2688 9.2027,-57.5172 -31.0593,-143.7929 -100.0798,-215.1141 -63.2689,-66.7199 -100.0798,-85.1254 -189.8066,-100.0798 -116.1846,-18.4055 -231.2188,6.902 -414.1233,92.0274 -54.0661,25.3075 -101.2301,41.4123 -106.9819,35.6606 -17.2551,-17.2551 113.884,-127.688 200.1597,-169.1004 162.1983,-77.0729 268.0298,-90.877 389.9661,-51.7654 141.4921,44.8634 224.3168,129.9887 311.7428,319.7953 27.6083,58.6674 54.0661,103.5308 60.9682,101.2301 49.4647,-20.7061 50.6151,-20.7061 58.6675,10.3531 12.6537,51.7654 -13.8041,115.0343 -70.1709,164.499 l -50.6151,44.8634 27.6082,26.4578 c 16.1048,14.9545 28.7586,34.5103 28.7586,42.5627 0,25.3075 -71.3213,60.9682 -123.0867,60.9682 -54.0661,0 -58.6675,5.7517 -31.0592,43.713 9.2027,13.8041 16.1048,36.8109 13.8041,51.7654 -3.451,24.1572 -8.0524,25.3075 -104.6812,23.0069 l -102.3805,-1.1504 9.2028,29.9089 c 33.3599,118.4853 -5.7518,132.2894 -138.0412,48.3144 z"
       id="path7"
       style="fill:#ff0000;stroke-width:1.15034" />
    <path
       d="m 2874.8697,2474.9964 c -86.2757,-20.7061 -101.2302,-55.2164 -66.7199,-164.499 36.811,-119.6356 58.6675,-151.8452 135.7404,-204.7609 81.6744,-54.0661 142.6425,-71.3213 226.6175,-65.5696 110.4329,8.0524 204.761,70.1709 253.0754,166.7997 72.4716,146.0935 20.7062,256.5264 -119.6356,256.5264 -59.8178,0 -190.9569,-31.0592 -190.9569,-46.0137 0,-4.6014 28.7586,-11.5034 63.2688,-14.9544 34.5103,-3.4511 78.2233,-14.9545 96.6288,-26.4579 92.0274,-54.0661 65.5695,-194.4079 -44.8633,-239.2713 -40.262,-16.1048 -51.7655,-16.1048 -83.975,-2.3007 -20.7062,8.0524 -51.7655,32.2096 -69.0206,51.7654 -34.5103,41.4124 -88.5764,200.1597 -88.5764,261.1278 0,36.811 -2.3007,39.1117 -36.8109,37.9613 -20.7062,-1.1503 -55.2165,-5.7517 -74.7723,-10.3531 z"
       id="path8"
       style="fill:#ff0000;stroke-width:1.15034" />
    <text
       xml:space="preserve"
       transform="matrix(6.1390912,0,0,-6.1390912,2068.7227,3673.0271)"
       id="text9-4"
       style="font-size:39.7859px;line-height:1.25;font-family:'Permanent Marker';-inkscape-font-specification:'Permanent Marker';letter-spacing:0px;word-spacing:0px;white-space:pre;shape-inside:url(#rect9-5);shape-padding:44.1462;display:inline"><tspan
         x="334.78906"
         y="373.94797"
         id="tspan3"><tspan
           style="font-family:'Adobe Song Std';-inkscape-font-specification:'Adobe Song Std';fill:#ff0000"
           id="tspan1">YABAnect Group</tspan></tspan></text>
  </g>
</svg>
