<?xml version="1.0" standalone="no"?>
<!DOCTYPE svg PUBLIC "-//W3C//DTD SVG 20010904//EN"
 "http://www.w3.org/TR/2001/REC-SVG-20010904/DTD/svg10.dtd">
<svg version="1.0" xmlns="http://www.w3.org/2000/svg"
 width="500.000000pt" height="500.000000pt" viewBox="0 0 500.000000 500.000000"
 preserveAspectRatio="xMidYMid meet">

<g transform="translate(0.000000,500.000000) scale(0.100000,-0.100000)"
fill="#FF0000" stroke="none">
<path d="M4284 3566 c-40 -40 -44 -75 -15 -122 27 -44 77 -60 124 -40 72 30
86 120 26 170 -45 38 -92 35 -135 -8z m114 -2 c32 -22 43 -57 31 -94 -12 -34
-35 -50 -73 -50 -38 0 -55 10 -71 41 -21 40 -19 57 14 90 33 32 65 37 99 13z"/>
<path d="M4320 3500 c0 -27 5 -50 10 -50 6 0 10 10 10 23 l1 22 18 -22 c23
-28 47 -32 32 -6 -6 11 -6 24 0 35 12 22 -14 48 -47 48 -22 0 -24 -4 -24 -50z
m47 14 c-3 -3 -12 -4 -19 -1 -8 3 -5 6 6 6 11 1 17 -2 13 -5z"/>
<path d="M30 3508 c0 -7 11 -31 23 -53 13 -22 143 -247 289 -500 279 -486 317
-549 323 -543 2 2 27 56 54 121 l51 118 -84 142 c-108 185 -318 553 -341 596
-24 48 -10 74 55 97 46 16 49 20 29 25 -13 4 -108 7 -211 8 -144 1 -188 -2
-188 -11z"/>
<path d="M1125 3477 c-12 -29 -163 -433 -484 -1297 -50 -134 -91 -248 -91
-252 0 -4 56 -8 124 -8 l125 0 31 83 c18 45 102 269 187 497 195 523 234 623
244 613 10 -11 189 -492 189 -509 0 -10 -21 -14 -77 -16 l-77 -3 -18 -60 c-10
-32 -16 -65 -14 -72 4 -10 37 -13 129 -13 l123 0 68 -182 c37 -100 70 -194 73
-210 8 -41 -16 -62 -110 -95 l-82 -28 244 -3 c134 -1 246 0 249 3 3 3 -36 116
-87 252 -51 137 -183 492 -293 791 l-201 542 -119 0 -119 0 -14 -33z"/>
<path d="M3995 3501 c-14 -6 -34 -47 -69 -142 -56 -153 -520 -1395 -531 -1421
-7 -17 3 -18 123 -18 l129 0 81 218 c269 722 353 945 365 968 12 24 19 10 110
-234 53 -142 97 -264 97 -270 0 -7 -29 -12 -77 -14 l-77 -3 -20 -62 c-11 -35
-17 -65 -14 -69 4 -3 60 -8 125 -11 65 -3 121 -8 125 -12 4 -3 41 -96 82 -206
87 -233 90 -215 -44 -269 l-85 -35 248 -1 c136 0 247 2 247 4 0 5 -32 91 -218
591 -65 176 -174 469 -241 651 l-123 332 -45 6 c-62 8 -164 7 -188 -3z"/>
<path d="M2475 3432 c-6 -4 -21 -22 -34 -39 -12 -18 -31 -33 -42 -33 -20 0
-33 -22 -44 -73 -4 -22 -10 -27 -23 -22 -9 4 -42 9 -73 12 -51 5 -58 3 -63
-15 -4 -11 2 -42 14 -71 11 -29 20 -58 20 -67 0 -8 -22 -47 -50 -86 -65 -93
-65 -116 3 -132 l27 -6 -65 -98 c-36 -53 -65 -102 -65 -109 0 -14 61 -33 106
-33 l32 0 -14 -65 c-16 -76 -20 -147 -10 -163 4 -7 16 -12 27 -12 33 0 34 -30
4 -85 -28 -52 -29 -82 -3 -89 52 -16 52 -14 14 -58 -56 -64 -46 -111 29 -135
l30 -10 -42 -22 c-24 -12 -43 -25 -43 -30 0 -5 20 -17 45 -27 25 -9 45 -20 45
-24 0 -4 -12 -15 -26 -25 l-27 -17 7 -182 c17 -449 41 -732 70 -800 27 -64 74
-43 135 62 42 73 90 197 79 208 -12 11 -76 -35 -98 -72 -12 -18 -25 -34 -29
-34 -24 0 -50 311 -51 596 l0 192 48 23 c58 30 64 62 16 94 -26 18 -30 25 -22
44 15 41 -14 71 -67 71 -24 0 -46 4 -49 8 -3 4 12 28 33 53 58 68 66 87 45
110 -9 10 -28 19 -41 19 -34 0 -36 17 -13 84 29 86 27 115 -11 129 -34 13 -33
8 -3 118 17 63 17 68 1 93 -13 20 -26 26 -52 26 -19 0 -35 1 -35 3 0 2 20 42
45 90 25 48 45 98 45 110 0 28 -17 47 -42 47 -25 0 -23 9 16 58 24 29 36 58
41 92 7 47 7 49 32 39 35 -13 63 12 63 59 0 29 3 33 18 27 9 -4 37 -10 61 -13
49 -6 71 11 71 55 l0 23 39 -20 c22 -11 64 -23 95 -26 39 -5 61 -13 77 -30 17
-18 33 -24 65 -24 37 0 45 -4 69 -37 56 -76 102 -115 173 -149 39 -19 72 -41
72 -49 0 -8 -20 -28 -46 -45 -25 -18 -43 -37 -41 -43 2 -8 29 -12 70 -12 57 0
69 -3 94 -26 69 -65 126 -74 195 -30 58 37 89 82 96 137 4 39 1 47 -29 77 -34
34 -138 80 -168 75 -8 -2 13 -18 47 -36 71 -38 94 -66 95 -116 2 -69 -46 -116
-118 -116 -51 0 -98 49 -93 96 2 31 -6 41 -128 148 -75 65 -153 144 -183 184
-57 76 -70 85 -107 76 -18 -5 -36 4 -75 35 -62 49 -83 51 -104 11 -9 -16 -21
-30 -28 -30 -6 0 -37 13 -67 30 -59 31 -69 34 -85 22z"/>
<path d="M2525 3066 c-38 -17 -74 -80 -82 -146 l-6 -50 44 0 c54 0 63 7 66 45
6 82 31 97 79 48 l26 -28 -5 44 c-9 72 -65 112 -122 87z"/>
<path d="M2885 3056 c-17 -12 -18 -17 -7 -41 9 -19 18 -25 34 -23 29 4 46 33
32 56 -15 23 -35 26 -59 8z"/>
<path d="M2810 2855 l-74 -44 -12 27 c-15 37 -38 54 -66 50 -16 -2 -39 -27
-75 -82 -29 -44 -53 -86 -53 -94 0 -25 61 -5 101 34 l36 35 13 -30 c25 -62 53
-64 116 -6 l37 34 25 -19 c15 -12 40 -20 63 -20 32 0 39 -4 39 -19 0 -24 9
-31 85 -57 56 -20 58 -22 33 -29 -35 -9 -35 -29 -1 -58 57 -47 93 -86 93 -101
0 -9 -12 -21 -27 -27 -55 -22 -58 -25 -59 -72 -2 -54 -33 -113 -95 -175 -95
-95 -261 -97 -465 -6 -74 33 -114 45 -114 34 0 -20 112 -106 182 -140 100 -49
187 -66 259 -51 136 29 213 93 299 253 51 95 58 103 83 100 25 -3 27 0 27 39
0 48 -28 99 -71 130 l-30 21 27 29 c26 28 27 29 10 48 -10 11 -43 25 -73 31
-45 10 -53 15 -47 28 4 10 9 29 12 45 l4 27 -86 0 c-47 0 -86 1 -86 3 0 1 4
18 10 37 23 82 -12 89 -120 25z"/>
<path d="M2462 2609 c-60 -14 -78 -44 -62 -106 30 -121 78 -186 171 -231 142
-69 306 -7 359 134 25 68 25 100 1 140 -33 55 -105 65 -222 34 -49 -14 -50
-27 -1 -35 96 -17 132 -46 132 -107 0 -53 -66 -118 -120 -118 -30 0 -75 25
-92 52 -23 35 -58 138 -66 193 -8 57 -20 62 -100 44z"/>
<path d="M3428 1871 c17 -10 13 -153 -5 -158 -7 -3 -9 3 -6 16 4 16 1 21 -16
21 -34 0 -25 -40 13 -53 11 -5 28 -1 42 7 20 14 23 25 26 96 l3 80 -35 0 c-22
0 -30 -3 -22 -9z"/>
<path d="M3869 1790 c14 -49 29 -90 33 -90 4 0 13 18 19 40 7 22 15 40 19 40
4 0 13 -21 20 -47 14 -55 14 -55 52 70 22 70 23 77 7 77 -11 0 -16 -6 -12 -18
2 -10 -1 -31 -8 -47 l-11 -30 -13 40 c-6 22 -10 43 -8 48 2 4 -10 7 -27 7 -27
0 -30 -2 -20 -19 12 -24 13 -68 1 -75 -10 -7 -34 71 -26 84 4 6 -7 10 -23 10
l-30 0 27 -90z"/>
<path d="M4350 1790 c0 -87 1 -90 23 -90 20 0 22 4 19 50 -3 32 0 50 7 50 7 0
11 -20 11 -50 0 -45 2 -50 23 -50 21 0 22 3 19 59 -4 62 -20 83 -48 60 -11 -9
-14 -5 -14 25 0 29 -4 36 -20 36 -19 0 -20 -7 -20 -90z"/>
<path d="M4525 1790 c0 -73 3 -90 15 -90 12 0 15 13 13 62 l-3 63 24 -65 c15
-41 26 -59 30 -50 3 8 15 40 26 70 l20 55 -3 -68 -2 -67 35 0 c23 0 30 3 22 9
-10 6 -13 30 -10 90 3 82 3 82 -21 79 -19 -2 -28 -13 -42 -53 l-17 -50 -11 28
c-6 15 -14 39 -17 52 -5 19 -13 25 -33 25 l-26 0 0 -90z"/>
<path d="M3735 1843 c-27 -38 -21 -136 9 -141 10 -2 23 1 29 7 8 8 8 11 -1 11
-8 0 -12 17 -12 45 0 29 4 45 13 45 9 0 9 2 1 8 -7 4 -14 18 -15 30 -4 24 -4
24 -24 -5z"/>
<path d="M4189 1838 c-14 -26 -12 -117 3 -135 8 -10 15 -10 32 -1 13 7 16 13
8 16 -16 5 -16 89 1 95 10 4 10 6 0 6 -7 1 -13 10 -13 21 0 27 -16 25 -31 -2z"/>
<path d="M3632 1818 c-19 -19 -14 -45 13 -66 14 -11 25 -25 25 -31 0 -16 -10
-14 -32 6 -17 15 -18 15 -18 -4 0 -23 38 -36 64 -21 25 14 20 55 -9 74 -28 18
-33 34 -10 34 8 0 15 -4 15 -10 0 -5 5 -10 10 -10 20 0 9 28 -12 34 -31 8 -32
8 -46 -6z"/>
<path d="M4065 1816 c-12 -8 -16 -19 -12 -30 9 -22 33 -15 29 8 -2 9 4 16 13
16 25 0 17 -25 -15 -48 -42 -32 -39 -73 5 -62 6 2 22 2 37 1 15 -1 29 3 33 9
3 5 1 10 -4 10 -6 0 -11 21 -11 49 0 35 -4 51 -16 55 -24 9 -38 7 -59 -8z m36
-89 c-8 -8 -11 -7 -11 4 0 20 13 34 18 19 3 -7 -1 -17 -7 -23z"/>
<path d="M4277 1819 c-42 -24 -41 -96 2 -118 15 -8 24 -7 42 8 l22 18 -23 -1
c-28 -1 -48 39 -36 70 7 18 8 18 17 2 6 -10 17 -18 24 -18 22 0 18 28 -4 40
-23 12 -21 12 -44 -1z"/>
<path d="M4736 1815 c-23 -23 -29 -54 -16 -85 14 -34 41 -43 69 -23 27 18 27
37 1 21 -17 -11 -22 -10 -30 2 -16 24 -12 30 20 30 34 0 38 14 14 48 -18 26
-37 28 -58 7z m34 -20 c0 -8 -4 -15 -10 -15 -5 0 -10 7 -10 15 0 8 5 15 10 15
6 0 10 -7 10 -15z"/>
<path d="M3502 1764 c3 -31 10 -59 16 -63 6 -4 28 -5 49 -3 l38 4 -3 59 c-3
50 -7 59 -23 59 -16 0 -19 -7 -19 -50 0 -27 -4 -50 -10 -50 -5 0 -10 23 -10
50 0 44 -2 50 -21 50 -20 0 -21 -4 -17 -56z"/>
</g>
</svg>
