<?xml version="1.0" encoding="UTF-8" standalone="no"?>
<svg
   version="1.0"
   width="594"
   height="420"
   viewBox="0 0 594 420"
   preserveAspectRatio="xMidYMid"
   id="svg8"
   sodipodi:docname="a26bda42-f63b-4d78-bfc6-53bc5ae314d7.svg"
   inkscape:version="1.4.2 (f4327f4, 2025-05-13)"
   inkscape:export-filename="..\Google Drive\Google Drive\Desktop\yabalink logo.svg"
   inkscape:export-xdpi="114.28571"
   inkscape:export-ydpi="114.28571"
   xmlns:inkscape="http://www.inkscape.org/namespaces/inkscape"
   xmlns:sodipodi="http://sodipodi.sourceforge.net/DTD/sodipodi-0.dtd"
   xmlns="http://www.w3.org/2000/svg"
   xmlns:svg="http://www.w3.org/2000/svg">
  <defs
     id="defs8">
    <rect
       x="290.64328"
       y="288.5965"
       width="327.90094"
       height="111.61939"
       id="rect9-2" />
  </defs>
  <sodipodi:namedview
     id="namedview8"
     pagecolor="#505050"
     bordercolor="#eeeeee"
     borderopacity="1"
     inkscape:showpageshadow="0"
     inkscape:pageopacity="0"
     inkscape:pagecheckerboard="0"
     inkscape:deskcolor="#505050"
     showguides="false"
     inkscape:zoom="1.2214286"
     inkscape:cx="317.66082"
     inkscape:cy="259.12281"
     inkscape:window-width="1366"
     inkscape:window-height="715"
     inkscape:window-x="-8"
     inkscape:window-y="-8"
     inkscape:window-maximized="1"
     inkscape:current-layer="g8"
     inkscape:export-bgcolor="#090909ff">
    <inkscape:page
       x="0"
       y="0"
       width="594"
       height="420"
       id="page2"
       margin="0"
       bleed="0" />
  </sodipodi:namedview>
  <path
     d="m 13.457508,70.255009 c 0.90609,1.81218 5.32326,9.51391 9.85369,17.21563 4.41716,7.58846 8.94759,15.403451 9.96694,17.328891 1.1326,1.81217 9.74042,16.87583 19.25431,33.41189 9.5139,16.53607 21.17975,36.69646 25.9367,44.96449 4.75695,8.15477 8.83434,14.61063 9.06086,14.38412 0.33978,-0.33979 3.1713,-6.79565 6.45586,-14.38412 l 6.00282,-13.8178 -2.605,-4.53043 c -6.11608,-10.75976 -28.99474,-50.17448 -38.73516,-66.937051 -5.88955,-9.96695 -10.6465,-19.14106 -10.6465,-20.27367 0,-3.39782 3.39782,-6.11607 9.85368,-8.04151 3.28456,-0.90609 6.00281,-1.92543 6.00281,-2.26521 0,-0.22653 -11.77911,-0.45305 -26.04996,-0.45305 h -26.16322 z"
     id="path1-2"
     style="fill:#ffffff;stroke:none;stroke-width:0.11326" />
  <path
     d="m 140.48222,78.717639 c -4.14124,11.38839 -19.09569,51.420301 -51.075202,137.350891 -8.28247,22.20161 -15.06949,40.72213 -15.06949,41.06723 0,0.46014 6.67199,0.80524 14.83942,0.80524 h 14.839422 l 1.72551,-4.48633 c 1.03531,-2.41572 4.94646,-12.88384 8.85763,-23.23692 3.91116,-10.35309 10.35308,-27.72326 14.37928,-38.42145 4.0262,-10.81322 12.4237,-33.12986 18.52052,-49.80983 6.21185,-16.56493 11.61846,-29.79387 12.07859,-29.33374 0.46014,0.57518 2.41572,5.06151 4.25627,10.12302 8.62757,22.89182 18.52052,49.6948 19.21072,51.99548 0.69021,2.64579 0.57517,2.64579 -8.85764,2.64579 h -9.66287 l -2.07062,6.55695 c -1.15034,3.6811 -2.30068,7.59227 -2.53075,8.62757 -0.57517,1.84055 0.92027,2.07062 15.18452,2.30069 l 15.64466,0.3451 4.3713,11.50343 c 2.41572,6.32688 6.55695,17.25514 9.20274,24.38726 2.64579,7.13212 4.60137,13.68908 4.25627,14.60935 -1.03531,2.64579 -5.29158,4.94647 -15.87473,8.62757 l -9.66288,3.45103 30.82918,0.11503 c 16.91004,0 30.71415,-0.23007 30.71415,-0.46013 0,-0.34511 -2.76082,-7.93737 -6.21185,-17.02507 -3.45103,-9.08771 -9.77791,-25.76768 -13.91914,-37.15607 -14.03418,-37.73124 -29.44877,-79.14357 -34.39525,-92.60258 -2.76082,-7.24715 -7.47722,-20.130981 -10.58315,-28.413451 l -5.63668,-15.29956 h -14.49431 -14.49432 z"
     id="path2-2"
     style="fill:#ffffff;stroke:none;stroke-width:0.115034" />
  <path
     d="m 486.73534,68.364549 c -0.23007,0.80524 -5.40661,14.95446 -11.50343,31.40436 -10.69819,28.873591 -16.67997,45.093421 -34.51028,92.602571 -4.7164,12.30866 -11.96356,31.74945 -16.10479,43.13784 -4.25627,11.38839 -8.35358,22.0398 -8.36571,22.03169 -0.23007,0.57517 -0.0251,0.39999 15.03769,0.39999 h 15.52963 l 1.15034,-3.22096 c 0.69021,-1.72551 8.51254,-22.77678 17.48521,-46.81894 30.36904,-81.44425 34.74034,-93.17775 35.66062,-94.90326 0.80524,-1.38041 1.26538,-0.92028 2.30068,1.72551 1.49545,4.14123 6.44192,17.48521 15.98977,42.90778 3.91116,10.23805 7.01709,18.86562 7.01709,19.21072 0,0.3451 -4.37131,0.57517 -9.66288,0.57517 h -9.66288 l -2.41572,7.93737 c -1.38041,4.3713 -2.41572,8.28246 -2.41572,8.62757 0,0.3451 6.90206,0.6902 15.41459,0.6902 13.57404,0 15.52963,0.23007 16.21983,1.95558 1.38041,3.56607 10.58315,28.1834 14.49432,38.65151 l 3.6811,10.12302 -2.30069,2.41572 c -1.38041,1.26538 -7.24716,4.0262 -13.22894,6.21185 l -10.69819,3.79613 h 30.71415 l 30.71415,0.11503 -3.45103,-9.54784 c -1.95558,-5.17654 -5.75171,-15.41459 -8.51253,-22.66175 -6.21185,-16.795 -31.74946,-85.24039 -47.04902,-126.537671 l -11.84852,-31.63443 -14.60936,-0.3451 c -11.04328,-0.23007 -14.60935,0.11504 -15.06948,1.15034 z"
     id="path3-1"
     sodipodi:nodetypes="cccccsccccccssccsscccccccccccccc"
     style="fill:#ffffff;stroke:none;stroke-width:0.115034" />
  <path
     d="m 290.47444,68.229809 c -1.03531,0.80524 -2.41572,2.87586 -2.9909,4.60137 -0.92027,2.30069 -1.95558,3.22096 -4.02619,3.22096 -3.56607,0 -6.44192,3.91117 -6.44192,8.97267 0,3.10593 -0.34511,3.6811 -1.95559,3.22096 -6.09681,-1.84054 -13.57404,-2.99089 -15.41459,-2.41572 -2.99089,1.03531 -2.76082,5.52165 0.69021,13.11391 3.33599,7.017091 3.79613,5.521641 -5.75171,17.715271 -7.01709,9.20274 -6.67199,12.53873 1.49544,14.14921 l 3.56606,0.6902 -8.05239,11.96357 c -4.37131,6.55695 -7.93737,12.4237 -7.93737,12.99887 0,1.49544 7.47723,3.56606 12.7688,3.56606 h 4.14124 l -2.18565,10.58315 c -1.15035,5.75172 -2.07062,12.4237 -1.84055,14.60935 0.3451,3.6811 0.6902,4.14124 3.10592,3.79613 5.75172,-0.57517 6.21185,4.83144 1.03531,11.96357 -4.3713,6.09681 -3.68109,8.51253 2.99089,10.00798 l 4.14124,1.03531 -4.60137,4.48633 c -8.0524,7.82233 -7.13213,14.49432 2.53075,16.795 l 4.94647,1.15035 -6.09681,2.76082 c -3.336,1.49544 -5.86675,3.22096 -5.63668,3.91116 0.23007,0.57517 3.10592,2.18565 6.44192,3.336 l 5.98178,2.18565 -3.6811,3.10592 -3.68109,3.10593 1.38041,34.97041 c 1.84055,47.27909 4.83144,77.5331 8.28246,84.09005 1.84055,3.336 6.67199,2.53076 10.69819,-1.84054 6.67199,-7.3622 17.71528,-32.8998 14.14921,-32.8998 -2.76082,0 -9.54784,5.52164 -11.73349,9.66288 -2.07062,3.79613 -3.91117,5.29157 -4.14123,3.22096 0,-0.46014 -0.34511,-1.84055 -0.57518,-3.10593 -2.76082,-11.15832 -4.14123,-28.29843 -4.7164,-57.74721 l -0.69021,-33.70503 3.336,-1.15035 c 5.86675,-1.95558 9.0877,-4.0262 9.43281,-6.09681 0.57517,-2.87586 -3.45103,-7.59226 -6.44192,-7.7073 -2.18565,0 -2.41572,-0.3451 -1.38041,-2.18565 1.84055,-3.56606 1.38041,-7.93736 -1.03531,-9.31777 -1.26538,-0.57517 -4.60137,-1.15035 -7.47723,-1.15035 -2.87585,0 -5.29157,-0.46013 -5.29157,-1.0353 0,-0.69021 2.64578,-4.14124 5.75171,-7.7073 3.33599,-3.79613 5.75171,-7.7073 5.75171,-9.20274 0,-2.76082 -2.87585,-5.06151 -6.55695,-5.06151 -4.83144,-0.11503 -4.94647,-1.49544 -1.26538,-11.15832 3.45103,-8.97267 3.45103,-9.54784 1.61048,-12.30867 -1.26537,-1.95558 -2.99089,-2.99089 -4.83144,-2.99089 -2.41572,0 -2.87585,-0.46013 -2.18565,-2.07061 7.59226,-18.63555 6.78702,-25.53761 -2.99089,-25.53761 -2.41572,0 -4.48633,-0.3451 -4.48633,-0.69021 0,-0.3451 1.61048,-2.87585 3.45102,-5.63667 4.48634,-6.55696 8.0524,-14.83942 8.0524,-18.98066 0,-3.22096 -1.72551,-4.60137 -5.86675,-4.60137 -2.99089,0 -2.87585,-0.57517 2.76083,-7.13212 4.25626,-5.06151 4.83144,-6.44192 4.83144,-11.38838 0,-4.371301 0.3451,-5.521651 1.72551,-5.176541 0.92027,0.3451 2.87586,0.80524 4.25627,1.26537 3.45102,0.92028 6.67198,-3.91116 5.75171,-8.62757 l -0.69021,-3.33599 4.71641,1.72551 c 9.31777,3.22096 13.57404,1.49545 13.57404,-5.75171 v -2.87586 l 4.94647,2.76083 c 3.45103,2.07061 6.55696,2.87585 11.15833,2.87585 5.75171,0 6.67199,0.34511 9.54784,3.56606 2.87586,3.336 3.56606,3.56607 8.28247,2.9909 2.87585,-0.46014 5.17654,-0.34511 5.17654,0.11503 0,1.84055 10.69819,14.839421 14.60935,17.830301 2.41572,1.72551 6.55695,3.79613 9.20274,4.3713 5.40661,1.38041 10.69819,6.09682 8.85764,7.93737 -0.69021,0.6902 -3.45103,2.30068 -6.32688,3.79613 -9.43281,4.7164 -6.09682,8.28246 5.75171,6.32688 4.7164,-0.92027 5.29157,-0.69021 9.89294,3.56606 5.98179,5.52165 11.7335,7.59226 17.14011,6.09682 5.52164,-1.61048 12.65377,-7.59226 15.75969,-13.34398 5.17654,-9.77791 -0.3451,-18.06037 -14.95445,-22.5467 -10.81322,-3.45103 -12.0786,-2.76082 -2.99089,1.61047 9.54784,4.48634 12.0786,7.01709 13.22894,13.22894 1.49544,8.3975 -4.94648,16.21983 -13.57404,16.21983 -5.06151,0 -7.7073,-1.49545 -11.04329,-6.44192 -2.41572,-3.56606 -2.64579,-4.60137 -1.49545,-7.13212 1.15034,-2.41572 1.03531,-3.10593 -0.80524,-4.14124 -2.30068,-1.26537 -8.7426,-6.90205 -23.81209,-20.361051 -4.71641,-4.14123 -10.81322,-11.04329 -13.68908,-15.18452 -5.63668,-8.3975 -8.0524,-9.89295 -11.73349,-7.47723 -2.18565,1.49545 -2.87586,1.15034 -8.0524,-3.91116 -7.24716,-7.13213 -11.50343,-7.59227 -13.68908,-1.49545 -0.80524,2.18565 -1.95558,4.0262 -2.53075,4.0262 -0.57517,0 -4.25627,-1.84055 -8.16743,-4.0262 -8.0524,-4.48634 -8.62757,-4.60137 -11.38839,-2.64579 z"
     id="path4-6"
     style="fill:#ffffff;stroke:none;stroke-width:0.115034" />
  <path
     d="m 294.50063,113.43827 c -3.79613,3.22096 -7.13212,11.38839 -7.13212,17.4852 v 3.79613 h 6.44192 c 5.52164,0 6.32688,-0.23006 5.75171,-2.07061 -0.80524,-2.64579 1.15034,-10.69819 2.76082,-11.7335 2.30069,-1.38041 5.86675,0.11504 7.13213,2.99089 2.07062,4.48634 3.56606,3.22096 2.76082,-2.07061 -1.61048,-10.23805 -10.58315,-14.37929 -17.71528,-8.3975 z"
     id="path5-8"
     style="fill:#ffffff;stroke:none;stroke-width:0.115034" />
  <path
     d="m 339.93917,112.51799 c -1.26538,1.26538 -0.92028,5.52165 0.57517,7.01709 3.45103,3.45103 8.62757,0 7.36219,-4.94647 -0.57517,-2.18565 -1.49544,-2.87586 -4.0262,-2.87586 -1.72551,0 -3.56606,0.34511 -3.91116,0.80524 z"
     id="path6-5"
     style="fill:#ffffff;stroke:none;stroke-width:0.115034" />
  <path
     d="m 331.77173,137.02029 c -4.94647,3.22096 -9.0877,5.75171 -9.20274,5.52164 -3.22096,-7.59226 -4.94647,-9.54784 -8.16743,-9.54784 -2.99089,0 -4.25627,1.15034 -10.00798,9.77791 -7.24716,10.69819 -7.93736,12.65377 -4.3713,12.65377 3.6811,0 8.62757,-2.99089 11.84853,-7.01709 l 2.76082,-3.56606 0.80524,3.22096 c 2.30069,9.0877 7.7073,9.54784 14.95445,1.49544 2.99089,-3.33599 5.29158,-5.0615 5.29158,-4.14123 0,3.33599 3.45103,5.40661 9.08771,5.40661 5.0615,0 5.40661,0.11503 5.29157,3.10593 0,2.76082 0.69021,3.22095 7.47723,5.29157 11.15832,3.33599 11.27336,3.45103 6.90205,4.14123 -6.09681,1.03531 -5.63667,3.6811 1.72552,9.20275 7.93736,5.98178 10.58315,9.77791 8.62757,12.19363 -0.80524,0.92027 -2.76082,1.72551 -4.48634,1.72551 -4.94647,0 -6.32688,1.61048 -5.52164,6.32688 0.92027,5.75172 -3.10593,14.37929 -10.00798,21.51141 -6.32689,6.67199 -10.00798,8.51254 -18.98066,10.00798 -11.61846,1.84055 -23.12188,-0.6902 -41.41233,-9.20274 -5.40661,-2.53075 -10.12301,-4.14123 -10.69819,-3.56606 -1.72551,1.72551 11.3884,12.7688 20.01597,16.91004 16.21983,7.70729 26.80298,9.0877 38.99661,5.17654 14.14921,-4.48634 22.43168,-12.99887 31.17428,-31.97953 2.76083,-5.86674 5.40661,-10.35308 6.09682,-10.12301 4.94647,2.07061 5.06151,2.07061 5.86675,-1.03531 1.26537,-5.17654 -1.38041,-11.50343 -7.01709,-16.4499 l -5.06151,-4.48634 2.76082,-2.64578 c 1.61048,-1.49545 2.87586,-3.45103 2.87586,-4.25627 0,-2.53075 -7.13213,-6.09682 -12.30867,-6.09682 -5.40661,0 -5.86675,-0.57517 -3.10592,-4.3713 0.92027,-1.38041 1.61048,-3.68109 1.38041,-5.17654 -0.3451,-2.41572 -0.80524,-2.53075 -10.46812,-2.30069 l -10.23805,0.11504 0.92028,-2.99089 c 3.33599,-11.84853 -0.57518,-13.22894 -13.80412,-4.83144 z"
     id="path7-7"
     style="fill:#ffffff;stroke:none;stroke-width:0.115034" />
  <path
     d="m 290.0143,166.9292 c -8.62757,2.07061 -10.12302,5.52164 -6.67199,16.4499 3.6811,11.96356 5.86675,15.18452 13.57404,20.47609 8.16744,5.40661 14.26425,7.13213 22.66175,6.55696 11.04329,-0.80524 20.4761,-7.01709 25.30754,-16.67997 7.24716,-14.60935 2.07062,-25.65264 -11.96356,-25.65264 -5.98178,0 -19.09569,3.10592 -19.09569,4.60137 0,0.46014 2.87586,1.15034 6.32688,1.49544 3.45103,0.34511 7.82233,1.49545 9.66288,2.64579 9.20274,5.40661 6.55695,19.44079 -4.48633,23.92713 -4.0262,1.61048 -5.17655,1.61048 -8.3975,0.23007 -2.07062,-0.80524 -5.17655,-3.22096 -6.90206,-5.17654 -3.45103,-4.14124 -8.85764,-20.01597 -8.85764,-26.11278 0,-3.6811 -0.23007,-3.91117 -3.68109,-3.79613 -2.07062,0.11503 -5.52165,0.57517 -7.47723,1.03531 z"
     id="path8-6"
     style="fill:#ffffff;stroke:none;stroke-width:0.115034" />
  <text
     xml:space="preserve"
     transform="matrix(0.62426488,0,0,0.62426488,233.99063,71.173489)"
     id="text9-1"
     style="font-size:68.4397px;line-height:1.25;font-family:'Permanent Marker';-inkscape-font-specification:'Permanent Marker';letter-spacing:0px;word-spacing:0px;white-space:pre;shape-inside:url(#rect9-2);display:inline;fill:#ffffff;stroke:none"><tspan
       x="290.64258"
       y="359.47789"
       id="tspan3"><tspan
         style="font-family:'Adobe Song Std';-inkscape-font-specification:'Adobe Song Std'"
         id="tspan2">YABAlink</tspan></tspan></text>
</svg>
